<?xml version="1.0" encoding="UTF-8"?>
<svg width="174px" height="174px" viewBox="0 0 174 174" version="1.1" xmlns="http://www.w3.org/2000/svg" xmlns:xlink="http://www.w3.org/1999/xlink">
    <!-- Generator: sketchtool 50.2 (55047) - http://www.bohemiancoding.com/sketch -->
    <title>C8FE3A38-59E9-4F3F-828D-D7790DBE7403@1x</title>
    <desc>Created with sketchtool.</desc>
    <defs>
        <path d="M16.321,15.376 C6.19,24.819 0.38,37.257 0.38,49.499 C0.38,60.953 4.004,72.313 10.86,82.343 C14.469,87.629 18.087,91.263 20.02,93.034 L20.02,114.234 C20.02,116.07 21.342,117.64 23.151,117.953 L67.946,125.72 C68.164,125.756 68.377,125.776 68.595,125.776 C69.473,125.776 70.338,125.466 71.026,124.89 C71.878,124.172 72.368,123.114 72.368,122.001 L72.368,103.028 L94.712,101.687 C96.721,101.568 98.277,99.897 98.261,97.883 L98.039,73.341 L106.913,73.341 C108.104,73.341 109.231,72.779 109.94,71.823 C110.65,70.87 110.872,69.638 110.536,68.494 C110.482,68.315 105.312,50.861 101.218,36.794 C98.719,28.206 92.864,19.506 85.155,12.933 C78.596,7.339 67.567,0.671 52.28,0.671 C39.454,0.671 26.346,6.032 16.321,15.376 M37.289,82.877 C36.336,82.177 36.49,81.347 36.997,80.464 C39.743,75.663 42.478,70.865 45.221,66.067 C47.365,62.292 49.494,58.518 51.668,54.773 C52.091,54.037 52.02,53.877 51.158,53.851 C46.625,53.725 42.104,53.541 37.571,53.381 C37.255,53.365 36.938,53.365 36.618,53.332 C35.04,53.15 34.477,52.03 35.264,50.637 C38.724,44.55 42.183,38.465 45.652,32.388 C47.24,29.587 48.868,26.816 50.42,23.999 C51.027,22.892 51.831,22.573 52.989,22.903 C54.825,23.443 56.662,23.953 58.502,24.486 C60.34,25.007 62.18,25.51 64.006,26.072 C65.714,26.593 66.036,27.568 64.993,28.994 C61.703,33.484 58.403,37.962 55.126,42.455 C54.917,42.745 54.431,43.032 54.664,43.449 C54.799,43.692 55.104,43.672 55.396,43.652 C55.489,43.645 55.581,43.638 55.666,43.64 C59.958,43.797 64.25,43.957 68.535,44.104 C68.85,44.128 69.166,44.131 69.487,44.157 C70.218,44.208 70.784,44.536 71.081,45.221 C71.38,45.89 71.098,46.437 70.647,46.951 C67.873,50.12 65.107,53.299 62.346,56.484 C54.994,64.941 47.637,73.4 40.288,81.857 C40.13,82.035 39.978,82.229 39.814,82.389 C39.325,82.927 38.781,83.2 38.251,83.2 C37.919,83.2 37.593,83.093 37.289,82.877" id="path-1"></path>
        <linearGradient x1="18.4499225%" y1="84.6689335%" x2="87.207382%" y2="1.45678214%" id="linearGradient-3">
            <stop stop-color="#0B56E9" offset="0%"></stop>
            <stop stop-color="#5DDBF9" offset="100%"></stop>
        </linearGradient>
    </defs>
    <g id="Page-1" stroke="none" stroke-width="1" fill="none" fill-rule="evenodd">
        <g id="Desktop" transform="translate(-790.000000, -2176.000000)">
            <g id="ready-to-change" transform="translate(0.000000, 1870.000000)">
                <g id="tile-1" transform="translate(745.000000, 306.000000)">
                    <g id="icon-lightning-brain" transform="translate(45.000000, 0.000000)">
                        <path d="M174,87 C174,135.049 135.049,174 87,174 C38.951,174 0,135.049 0,87 C0,38.951 38.951,0 87,0 C135.049,0 174,38.951 174,87" id="Fill-66" fill="#FFFFFF"></path>
                        <g id="Group-70" transform="translate(32.000000, 24.000000)">
                            <mask id="mask-2" fill="white">
                                <use xlink:href="#path-1"></use>
                            </mask>
                            <g id="Clip-69"></g>
                            <path d="M16.321,15.376 C6.19,24.819 0.38,37.257 0.38,49.499 C0.38,60.953 4.004,72.313 10.86,82.343 C14.469,87.629 18.087,91.263 20.02,93.034 L20.02,114.234 C20.02,116.07 21.342,117.64 23.151,117.953 L67.946,125.72 C68.164,125.756 68.377,125.776 68.595,125.776 C69.473,125.776 70.338,125.466 71.026,124.89 C71.878,124.172 72.368,123.114 72.368,122.001 L72.368,103.028 L94.712,101.687 C96.721,101.568 98.277,99.897 98.261,97.883 L98.039,73.341 L106.913,73.341 C108.104,73.341 109.231,72.779 109.94,71.823 C110.65,70.87 110.872,69.638 110.536,68.494 C110.482,68.315 105.312,50.861 101.218,36.794 C98.719,28.206 92.864,19.506 85.155,12.933 C78.596,7.339 67.567,0.671 52.28,0.671 C39.454,0.671 26.346,6.032 16.321,15.376 M37.289,82.877 C36.336,82.177 36.49,81.347 36.997,80.464 C39.743,75.663 42.478,70.865 45.221,66.067 C47.365,62.292 49.494,58.518 51.668,54.773 C52.091,54.037 52.02,53.877 51.158,53.851 C46.625,53.725 42.104,53.541 37.571,53.381 C37.255,53.365 36.938,53.365 36.618,53.332 C35.04,53.15 34.477,52.03 35.264,50.637 C38.724,44.55 42.183,38.465 45.652,32.388 C47.24,29.587 48.868,26.816 50.42,23.999 C51.027,22.892 51.831,22.573 52.989,22.903 C54.825,23.443 56.662,23.953 58.502,24.486 C60.34,25.007 62.18,25.51 64.006,26.072 C65.714,26.593 66.036,27.568 64.993,28.994 C61.703,33.484 58.403,37.962 55.126,42.455 C54.917,42.745 54.431,43.032 54.664,43.449 C54.799,43.692 55.104,43.672 55.396,43.652 C55.489,43.645 55.581,43.638 55.666,43.64 C59.958,43.797 64.25,43.957 68.535,44.104 C68.85,44.128 69.166,44.131 69.487,44.157 C70.218,44.208 70.784,44.536 71.081,45.221 C71.38,45.89 71.098,46.437 70.647,46.951 C67.873,50.12 65.107,53.299 62.346,56.484 C54.994,64.941 47.637,73.4 40.288,81.857 C40.13,82.035 39.978,82.229 39.814,82.389 C39.325,82.927 38.781,83.2 38.251,83.2 C37.919,83.2 37.593,83.093 37.289,82.877" id="Fill-68" fill="url(#linearGradient-3)" mask="url(#mask-2)"></path>
                        </g>
                    </g>
                </g>
            </g>
        </g>
    </g>
</svg>